<mxfile host="app.diagrams.net" modified="2023-05-12T02:45:53.732Z" agent="Mozilla/5.0 (Macintosh; Intel Mac OS X 10_15_7) AppleWebKit/537.36 (KHTML, like Gecko) Chrome/112.0.0.0 Safari/537.36" etag="VKQClkO03THDx9e3WBWY" version="21.2.9" type="github">
  <diagram name="第 1 页" id="ikNFQzrbELLtT05Fq9ML">
    <mxGraphModel dx="1050" dy="582" grid="1" gridSize="10" guides="1" tooltips="1" connect="1" arrows="1" fold="1" page="1" pageScale="1" pageWidth="827" pageHeight="1169" math="0" shadow="0">
      <root>
        <mxCell id="0" />
        <mxCell id="1" parent="0" />
        <mxCell id="TmSGDkiNXZQOND0ppXtN-9" style="edgeStyle=orthogonalEdgeStyle;hachureGap=4;orthogonalLoop=1;jettySize=auto;html=1;exitX=0.5;exitY=1;exitDx=0;exitDy=0;entryX=0.5;entryY=0;entryDx=0;entryDy=0;fontFamily=Architects Daughter;fontSource=https%3A%2F%2Ffonts.googleapis.com%2Fcss%3Ffamily%3DArchitects%2BDaughter;fontSize=16;curved=1;" edge="1" parent="1" source="TmSGDkiNXZQOND0ppXtN-2" target="TmSGDkiNXZQOND0ppXtN-3">
          <mxGeometry relative="1" as="geometry" />
        </mxCell>
        <mxCell id="TmSGDkiNXZQOND0ppXtN-10" style="edgeStyle=orthogonalEdgeStyle;hachureGap=4;orthogonalLoop=1;jettySize=auto;html=1;exitX=0.5;exitY=1;exitDx=0;exitDy=0;entryX=0.5;entryY=0;entryDx=0;entryDy=0;fontFamily=Architects Daughter;fontSource=https%3A%2F%2Ffonts.googleapis.com%2Fcss%3Ffamily%3DArchitects%2BDaughter;fontSize=16;curved=1;" edge="1" parent="1" source="TmSGDkiNXZQOND0ppXtN-2" target="TmSGDkiNXZQOND0ppXtN-4">
          <mxGeometry relative="1" as="geometry" />
        </mxCell>
        <mxCell id="TmSGDkiNXZQOND0ppXtN-12" style="edgeStyle=orthogonalEdgeStyle;hachureGap=4;orthogonalLoop=1;jettySize=auto;html=1;exitX=0.5;exitY=1;exitDx=0;exitDy=0;entryX=0.5;entryY=0;entryDx=0;entryDy=0;fontFamily=Architects Daughter;fontSource=https%3A%2F%2Ffonts.googleapis.com%2Fcss%3Ffamily%3DArchitects%2BDaughter;fontSize=16;curved=1;" edge="1" parent="1" source="TmSGDkiNXZQOND0ppXtN-2" target="TmSGDkiNXZQOND0ppXtN-5">
          <mxGeometry relative="1" as="geometry" />
        </mxCell>
        <mxCell id="TmSGDkiNXZQOND0ppXtN-2" value="&lt;span style=&quot;font-size: 14px;&quot;&gt;loan-product&lt;br&gt;网关&lt;br&gt;&lt;/span&gt;" style="rounded=1;whiteSpace=wrap;html=1;shadow=0;glass=0;fillColor=#dae8fc;strokeColor=#6c8ebf;" vertex="1" parent="1">
          <mxGeometry x="350" y="80" width="130" height="60" as="geometry" />
        </mxCell>
        <mxCell id="TmSGDkiNXZQOND0ppXtN-3" value="&lt;span style=&quot;font-size: 14px;&quot;&gt;loan-api&lt;br&gt;订单相关&lt;br&gt;&lt;/span&gt;" style="rounded=1;whiteSpace=wrap;html=1;shadow=0;glass=0;fillColor=#fff2cc;strokeColor=#d6b656;" vertex="1" parent="1">
          <mxGeometry x="130" y="210" width="130" height="60" as="geometry" />
        </mxCell>
        <mxCell id="TmSGDkiNXZQOND0ppXtN-13" style="edgeStyle=orthogonalEdgeStyle;hachureGap=4;orthogonalLoop=1;jettySize=auto;html=1;exitX=0.5;exitY=1;exitDx=0;exitDy=0;entryX=0.5;entryY=0;entryDx=0;entryDy=0;fontFamily=Architects Daughter;fontSource=https%3A%2F%2Ffonts.googleapis.com%2Fcss%3Ffamily%3DArchitects%2BDaughter;fontSize=16;curved=1;" edge="1" parent="1" source="TmSGDkiNXZQOND0ppXtN-4" target="TmSGDkiNXZQOND0ppXtN-7">
          <mxGeometry relative="1" as="geometry" />
        </mxCell>
        <mxCell id="TmSGDkiNXZQOND0ppXtN-14" style="edgeStyle=orthogonalEdgeStyle;hachureGap=4;orthogonalLoop=1;jettySize=auto;html=1;exitX=0.5;exitY=1;exitDx=0;exitDy=0;entryX=0.5;entryY=0;entryDx=0;entryDy=0;fontFamily=Architects Daughter;fontSource=https%3A%2F%2Ffonts.googleapis.com%2Fcss%3Ffamily%3DArchitects%2BDaughter;fontSize=16;curved=1;" edge="1" parent="1" source="TmSGDkiNXZQOND0ppXtN-4" target="TmSGDkiNXZQOND0ppXtN-6">
          <mxGeometry relative="1" as="geometry" />
        </mxCell>
        <mxCell id="TmSGDkiNXZQOND0ppXtN-15" style="edgeStyle=orthogonalEdgeStyle;hachureGap=4;orthogonalLoop=1;jettySize=auto;html=1;exitX=0.5;exitY=1;exitDx=0;exitDy=0;entryX=0.5;entryY=0;entryDx=0;entryDy=0;fontFamily=Architects Daughter;fontSource=https%3A%2F%2Ffonts.googleapis.com%2Fcss%3Ffamily%3DArchitects%2BDaughter;fontSize=16;curved=1;" edge="1" parent="1" source="TmSGDkiNXZQOND0ppXtN-4" target="TmSGDkiNXZQOND0ppXtN-8">
          <mxGeometry relative="1" as="geometry" />
        </mxCell>
        <mxCell id="TmSGDkiNXZQOND0ppXtN-4" value="&lt;span style=&quot;font-size: 14px;&quot;&gt;channel-api&lt;br&gt;渠道相关&lt;br&gt;&lt;/span&gt;" style="rounded=1;whiteSpace=wrap;html=1;shadow=0;glass=0;fillColor=#fff2cc;strokeColor=#d6b656;" vertex="1" parent="1">
          <mxGeometry x="350" y="210" width="130" height="60" as="geometry" />
        </mxCell>
        <mxCell id="TmSGDkiNXZQOND0ppXtN-5" value="&lt;span style=&quot;font-size: 14px;&quot;&gt;quato&lt;br&gt;额度相关&lt;br&gt;&lt;/span&gt;" style="rounded=1;whiteSpace=wrap;html=1;shadow=0;glass=0;fillColor=#fff2cc;strokeColor=#d6b656;" vertex="1" parent="1">
          <mxGeometry x="550" y="210" width="130" height="60" as="geometry" />
        </mxCell>
        <mxCell id="TmSGDkiNXZQOND0ppXtN-6" value="&lt;font style=&quot;font-size: 14px;&quot;&gt;百信&lt;/font&gt;" style="rounded=1;whiteSpace=wrap;html=1;shadow=0;glass=0;fillColor=#d5e8d4;strokeColor=#82b366;" vertex="1" parent="1">
          <mxGeometry x="190" y="340" width="130" height="60" as="geometry" />
        </mxCell>
        <mxCell id="TmSGDkiNXZQOND0ppXtN-19" style="edgeStyle=orthogonalEdgeStyle;hachureGap=4;orthogonalLoop=1;jettySize=auto;html=1;exitX=0.5;exitY=1;exitDx=0;exitDy=0;entryX=0.5;entryY=0;entryDx=0;entryDy=0;fontFamily=Architects Daughter;fontSource=https%3A%2F%2Ffonts.googleapis.com%2Fcss%3Ffamily%3DArchitects%2BDaughter;fontSize=16;curved=1;" edge="1" parent="1" source="TmSGDkiNXZQOND0ppXtN-7" target="TmSGDkiNXZQOND0ppXtN-17">
          <mxGeometry relative="1" as="geometry" />
        </mxCell>
        <mxCell id="TmSGDkiNXZQOND0ppXtN-20" style="edgeStyle=orthogonalEdgeStyle;hachureGap=4;orthogonalLoop=1;jettySize=auto;html=1;exitX=0.5;exitY=1;exitDx=0;exitDy=0;entryX=0.5;entryY=0;entryDx=0;entryDy=0;fontFamily=Architects Daughter;fontSource=https%3A%2F%2Ffonts.googleapis.com%2Fcss%3Ffamily%3DArchitects%2BDaughter;fontSize=16;curved=1;" edge="1" parent="1" source="TmSGDkiNXZQOND0ppXtN-7" target="TmSGDkiNXZQOND0ppXtN-16">
          <mxGeometry relative="1" as="geometry" />
        </mxCell>
        <mxCell id="TmSGDkiNXZQOND0ppXtN-21" style="edgeStyle=orthogonalEdgeStyle;hachureGap=4;orthogonalLoop=1;jettySize=auto;html=1;exitX=0.5;exitY=1;exitDx=0;exitDy=0;entryX=0.5;entryY=0;entryDx=0;entryDy=0;fontFamily=Architects Daughter;fontSource=https%3A%2F%2Ffonts.googleapis.com%2Fcss%3Ffamily%3DArchitects%2BDaughter;fontSize=16;curved=1;" edge="1" parent="1" source="TmSGDkiNXZQOND0ppXtN-7" target="TmSGDkiNXZQOND0ppXtN-18">
          <mxGeometry relative="1" as="geometry" />
        </mxCell>
        <mxCell id="TmSGDkiNXZQOND0ppXtN-7" value="&lt;span style=&quot;font-size: 14px;&quot;&gt;repayment-api&lt;br&gt;自营渠道&lt;br&gt;&lt;/span&gt;" style="rounded=1;whiteSpace=wrap;html=1;shadow=0;glass=0;fillColor=#d5e8d4;strokeColor=#82b366;" vertex="1" parent="1">
          <mxGeometry x="350" y="340" width="130" height="60" as="geometry" />
        </mxCell>
        <mxCell id="TmSGDkiNXZQOND0ppXtN-8" value="&lt;font style=&quot;font-size: 14px;&quot;&gt;乐享借&lt;/font&gt;" style="rounded=1;whiteSpace=wrap;html=1;shadow=0;glass=0;fillColor=#d5e8d4;strokeColor=#82b366;" vertex="1" parent="1">
          <mxGeometry x="520" y="340" width="130" height="60" as="geometry" />
        </mxCell>
        <mxCell id="TmSGDkiNXZQOND0ppXtN-16" value="&lt;span style=&quot;font-size: 14px;&quot;&gt;base-api&lt;br&gt;基础服务&lt;br&gt;&lt;/span&gt;" style="rounded=1;whiteSpace=wrap;html=1;shadow=0;glass=0;fillColor=#e1d5e7;strokeColor=#9673a6;" vertex="1" parent="1">
          <mxGeometry x="350" y="480" width="130" height="60" as="geometry" />
        </mxCell>
        <mxCell id="TmSGDkiNXZQOND0ppXtN-17" value="&lt;font style=&quot;font-size: 14px;&quot;&gt;risk&lt;/font&gt;" style="rounded=1;whiteSpace=wrap;html=1;shadow=0;glass=0;fillColor=#e1d5e7;strokeColor=#9673a6;" vertex="1" parent="1">
          <mxGeometry x="170" y="480" width="130" height="60" as="geometry" />
        </mxCell>
        <mxCell id="TmSGDkiNXZQOND0ppXtN-18" value="&lt;font style=&quot;font-size: 14px;&quot;&gt;决策引擎&lt;/font&gt;" style="rounded=1;whiteSpace=wrap;html=1;shadow=0;glass=0;fillColor=#e1d5e7;strokeColor=#9673a6;" vertex="1" parent="1">
          <mxGeometry x="540" y="480" width="130" height="60" as="geometry" />
        </mxCell>
        <mxCell id="TmSGDkiNXZQOND0ppXtN-22" value="" style="swimlane;startSize=0;hachureGap=4;fontFamily=Architects Daughter;fontSource=https%3A%2F%2Ffonts.googleapis.com%2Fcss%3Ffamily%3DArchitects%2BDaughter;fontSize=20;fillColor=#ffe6cc;strokeColor=#d79b00;" vertex="1" parent="1">
          <mxGeometry x="100" y="432" width="640" height="152.5" as="geometry">
            <mxRectangle x="100" y="432" width="50" height="40" as="alternateBounds" />
          </mxGeometry>
        </mxCell>
        <mxCell id="TmSGDkiNXZQOND0ppXtN-23" value="&lt;font style=&quot;font-size: 12px;&quot;&gt;基础原子服务&lt;/font&gt;" style="text;html=1;align=center;verticalAlign=middle;resizable=0;points=[];autosize=1;strokeColor=none;fillColor=none;fontSize=20;fontFamily=Architects Daughter;" vertex="1" parent="1">
          <mxGeometry x="650" y="432" width="100" height="40" as="geometry" />
        </mxCell>
      </root>
    </mxGraphModel>
  </diagram>
</mxfile>
